<mxfile host="app.diagrams.net" modified="2020-10-10T21:39:17.649Z" agent="5.0 (X11; Linux x86_64) AppleWebKit/537.36 (KHTML, like Gecko) Chrome/84.0.4147.105 Safari/537.36" etag="_HMp1_a8LQnt7nZUk8Nt" version="13.7.9" type="github">
  <diagram id="ffyq33YK6baQifFhGJ2l" name="Page-1">
    <mxGraphModel dx="1129" dy="672" grid="1" gridSize="10" guides="1" tooltips="1" connect="1" arrows="1" fold="1" page="1" pageScale="1" pageWidth="850" pageHeight="1100" math="0" shadow="0">
      <root>
        <mxCell id="0" />
        <mxCell id="1" parent="0" />
        <mxCell id="jiRiJnq25yYsJu8a-V5x-1" value="System" style="whiteSpace=wrap;html=1;aspect=fixed;direction=north;perimeter=hexagonPerimeter2;" vertex="1" parent="1">
          <mxGeometry x="490" y="270" width="250" height="250" as="geometry" />
        </mxCell>
        <mxCell id="jiRiJnq25yYsJu8a-V5x-2" value="" style="endArrow=classic;html=1;" edge="1" parent="1">
          <mxGeometry width="50" height="50" relative="1" as="geometry">
            <mxPoint x="210" y="310" as="sourcePoint" />
            <mxPoint x="390" y="310" as="targetPoint" />
          </mxGeometry>
        </mxCell>
        <mxCell id="jiRiJnq25yYsJu8a-V5x-3" value="" style="endArrow=classic;html=1;" edge="1" parent="1">
          <mxGeometry width="50" height="50" relative="1" as="geometry">
            <mxPoint x="220" y="319.9999999999999" as="sourcePoint" />
            <mxPoint x="400" y="319.9999999999999" as="targetPoint" />
          </mxGeometry>
        </mxCell>
        <mxCell id="jiRiJnq25yYsJu8a-V5x-4" value="" style="endArrow=classic;html=1;" edge="1" parent="1">
          <mxGeometry width="50" height="50" relative="1" as="geometry">
            <mxPoint x="230" y="329.9999999999999" as="sourcePoint" />
            <mxPoint x="410" y="329.9999999999999" as="targetPoint" />
          </mxGeometry>
        </mxCell>
        <mxCell id="jiRiJnq25yYsJu8a-V5x-5" value="" style="endArrow=classic;html=1;" edge="1" parent="1">
          <mxGeometry width="50" height="50" relative="1" as="geometry">
            <mxPoint x="240" y="339.9999999999999" as="sourcePoint" />
            <mxPoint x="420" y="339.9999999999999" as="targetPoint" />
          </mxGeometry>
        </mxCell>
        <mxCell id="jiRiJnq25yYsJu8a-V5x-6" value="" style="endArrow=classic;html=1;" edge="1" parent="1">
          <mxGeometry width="50" height="50" relative="1" as="geometry">
            <mxPoint x="250" y="349.9999999999999" as="sourcePoint" />
            <mxPoint x="430" y="349.9999999999999" as="targetPoint" />
          </mxGeometry>
        </mxCell>
        <mxCell id="jiRiJnq25yYsJu8a-V5x-7" value="" style="endArrow=classic;html=1;" edge="1" parent="1">
          <mxGeometry width="50" height="50" relative="1" as="geometry">
            <mxPoint x="260" y="359.9999999999999" as="sourcePoint" />
            <mxPoint x="440" y="359.9999999999999" as="targetPoint" />
          </mxGeometry>
        </mxCell>
        <mxCell id="jiRiJnq25yYsJu8a-V5x-8" value="" style="endArrow=classic;html=1;" edge="1" parent="1">
          <mxGeometry width="50" height="50" relative="1" as="geometry">
            <mxPoint x="270" y="369.9999999999999" as="sourcePoint" />
            <mxPoint x="450" y="369.9999999999999" as="targetPoint" />
          </mxGeometry>
        </mxCell>
        <mxCell id="jiRiJnq25yYsJu8a-V5x-9" value="" style="endArrow=classic;html=1;" edge="1" parent="1">
          <mxGeometry width="50" height="50" relative="1" as="geometry">
            <mxPoint x="280" y="379.9999999999999" as="sourcePoint" />
            <mxPoint x="460" y="379.9999999999999" as="targetPoint" />
          </mxGeometry>
        </mxCell>
        <mxCell id="jiRiJnq25yYsJu8a-V5x-10" value="" style="endArrow=classic;html=1;" edge="1" parent="1">
          <mxGeometry width="50" height="50" relative="1" as="geometry">
            <mxPoint x="290" y="389.9999999999999" as="sourcePoint" />
            <mxPoint x="470" y="389.9999999999999" as="targetPoint" />
          </mxGeometry>
        </mxCell>
        <mxCell id="jiRiJnq25yYsJu8a-V5x-11" value="" style="endArrow=classic;html=1;" edge="1" parent="1">
          <mxGeometry width="50" height="50" relative="1" as="geometry">
            <mxPoint x="300" y="399.9999999999999" as="sourcePoint" />
            <mxPoint x="480" y="399.9999999999999" as="targetPoint" />
          </mxGeometry>
        </mxCell>
        <mxCell id="jiRiJnq25yYsJu8a-V5x-12" value="" style="endArrow=classic;html=1;" edge="1" parent="1">
          <mxGeometry width="50" height="50" relative="1" as="geometry">
            <mxPoint x="310" y="409.9999999999999" as="sourcePoint" />
            <mxPoint x="490" y="409.9999999999999" as="targetPoint" />
          </mxGeometry>
        </mxCell>
        <mxCell id="jiRiJnq25yYsJu8a-V5x-13" value="" style="endArrow=classic;html=1;" edge="1" parent="1">
          <mxGeometry width="50" height="50" relative="1" as="geometry">
            <mxPoint x="320" y="419.9999999999999" as="sourcePoint" />
            <mxPoint x="500" y="419.9999999999999" as="targetPoint" />
          </mxGeometry>
        </mxCell>
        <mxCell id="jiRiJnq25yYsJu8a-V5x-14" value="" style="endArrow=classic;html=1;" edge="1" parent="1">
          <mxGeometry width="50" height="50" relative="1" as="geometry">
            <mxPoint x="330" y="429.9999999999999" as="sourcePoint" />
            <mxPoint x="510" y="429.9999999999999" as="targetPoint" />
          </mxGeometry>
        </mxCell>
        <mxCell id="jiRiJnq25yYsJu8a-V5x-15" value="" style="endArrow=classic;html=1;" edge="1" parent="1">
          <mxGeometry width="50" height="50" relative="1" as="geometry">
            <mxPoint x="340" y="439.9999999999999" as="sourcePoint" />
            <mxPoint x="520" y="439.9999999999999" as="targetPoint" />
          </mxGeometry>
        </mxCell>
        <mxCell id="jiRiJnq25yYsJu8a-V5x-16" value="" style="endArrow=classic;html=1;" edge="1" parent="1">
          <mxGeometry width="50" height="50" relative="1" as="geometry">
            <mxPoint x="350" y="449.9999999999999" as="sourcePoint" />
            <mxPoint x="530" y="449.9999999999999" as="targetPoint" />
          </mxGeometry>
        </mxCell>
        <mxCell id="jiRiJnq25yYsJu8a-V5x-17" value="" style="endArrow=classic;html=1;" edge="1" parent="1">
          <mxGeometry width="50" height="50" relative="1" as="geometry">
            <mxPoint x="360" y="459.9999999999999" as="sourcePoint" />
            <mxPoint x="540" y="459.9999999999999" as="targetPoint" />
          </mxGeometry>
        </mxCell>
        <mxCell id="jiRiJnq25yYsJu8a-V5x-18" value="" style="endArrow=classic;html=1;" edge="1" parent="1">
          <mxGeometry width="50" height="50" relative="1" as="geometry">
            <mxPoint x="370" y="469.9999999999999" as="sourcePoint" />
            <mxPoint x="550" y="469.9999999999999" as="targetPoint" />
          </mxGeometry>
        </mxCell>
        <mxCell id="jiRiJnq25yYsJu8a-V5x-19" value="" style="endArrow=classic;html=1;" edge="1" parent="1">
          <mxGeometry width="50" height="50" relative="1" as="geometry">
            <mxPoint x="380" y="479.9999999999999" as="sourcePoint" />
            <mxPoint x="560" y="479.9999999999999" as="targetPoint" />
          </mxGeometry>
        </mxCell>
        <mxCell id="jiRiJnq25yYsJu8a-V5x-20" value="" style="endArrow=classic;html=1;" edge="1" parent="1">
          <mxGeometry width="50" height="50" relative="1" as="geometry">
            <mxPoint x="390" y="489.9999999999999" as="sourcePoint" />
            <mxPoint x="570" y="489.9999999999999" as="targetPoint" />
          </mxGeometry>
        </mxCell>
        <mxCell id="jiRiJnq25yYsJu8a-V5x-21" value="" style="endArrow=classic;html=1;" edge="1" parent="1">
          <mxGeometry width="50" height="50" relative="1" as="geometry">
            <mxPoint x="400" y="499.9999999999999" as="sourcePoint" />
            <mxPoint x="580" y="499.9999999999999" as="targetPoint" />
          </mxGeometry>
        </mxCell>
        <mxCell id="jiRiJnq25yYsJu8a-V5x-22" value="" style="endArrow=classic;html=1;" edge="1" parent="1">
          <mxGeometry width="50" height="50" relative="1" as="geometry">
            <mxPoint x="660" y="319.9999999999999" as="sourcePoint" />
            <mxPoint x="840" y="319.9999999999999" as="targetPoint" />
          </mxGeometry>
        </mxCell>
        <mxCell id="jiRiJnq25yYsJu8a-V5x-23" value="" style="endArrow=classic;html=1;" edge="1" parent="1">
          <mxGeometry width="50" height="50" relative="1" as="geometry">
            <mxPoint x="669.9999999999998" y="329.9999999999999" as="sourcePoint" />
            <mxPoint x="849.9999999999998" y="329.9999999999999" as="targetPoint" />
          </mxGeometry>
        </mxCell>
        <mxCell id="jiRiJnq25yYsJu8a-V5x-24" value="" style="endArrow=classic;html=1;" edge="1" parent="1">
          <mxGeometry width="50" height="50" relative="1" as="geometry">
            <mxPoint x="679.9999999999998" y="339.9999999999999" as="sourcePoint" />
            <mxPoint x="859.9999999999998" y="339.9999999999999" as="targetPoint" />
          </mxGeometry>
        </mxCell>
        <mxCell id="jiRiJnq25yYsJu8a-V5x-25" value="" style="endArrow=classic;html=1;" edge="1" parent="1">
          <mxGeometry width="50" height="50" relative="1" as="geometry">
            <mxPoint x="689.9999999999998" y="349.9999999999999" as="sourcePoint" />
            <mxPoint x="869.9999999999998" y="349.9999999999999" as="targetPoint" />
          </mxGeometry>
        </mxCell>
        <mxCell id="jiRiJnq25yYsJu8a-V5x-26" value="" style="endArrow=classic;html=1;" edge="1" parent="1">
          <mxGeometry width="50" height="50" relative="1" as="geometry">
            <mxPoint x="699.9999999999998" y="359.9999999999999" as="sourcePoint" />
            <mxPoint x="879.9999999999998" y="359.9999999999999" as="targetPoint" />
          </mxGeometry>
        </mxCell>
        <mxCell id="jiRiJnq25yYsJu8a-V5x-27" value="" style="endArrow=classic;html=1;" edge="1" parent="1">
          <mxGeometry width="50" height="50" relative="1" as="geometry">
            <mxPoint x="709.9999999999998" y="369.9999999999999" as="sourcePoint" />
            <mxPoint x="889.9999999999998" y="369.9999999999999" as="targetPoint" />
          </mxGeometry>
        </mxCell>
        <mxCell id="jiRiJnq25yYsJu8a-V5x-28" value="" style="endArrow=classic;html=1;" edge="1" parent="1">
          <mxGeometry width="50" height="50" relative="1" as="geometry">
            <mxPoint x="719.9999999999998" y="379.9999999999999" as="sourcePoint" />
            <mxPoint x="899.9999999999998" y="379.9999999999999" as="targetPoint" />
          </mxGeometry>
        </mxCell>
        <mxCell id="jiRiJnq25yYsJu8a-V5x-29" value="" style="endArrow=classic;html=1;" edge="1" parent="1">
          <mxGeometry width="50" height="50" relative="1" as="geometry">
            <mxPoint x="729.9999999999998" y="389.9999999999999" as="sourcePoint" />
            <mxPoint x="909.9999999999998" y="389.9999999999999" as="targetPoint" />
          </mxGeometry>
        </mxCell>
        <mxCell id="jiRiJnq25yYsJu8a-V5x-30" value="" style="endArrow=classic;html=1;" edge="1" parent="1">
          <mxGeometry width="50" height="50" relative="1" as="geometry">
            <mxPoint x="739.9999999999998" y="399.9999999999999" as="sourcePoint" />
            <mxPoint x="919.9999999999998" y="399.9999999999999" as="targetPoint" />
          </mxGeometry>
        </mxCell>
        <mxCell id="jiRiJnq25yYsJu8a-V5x-31" value="" style="endArrow=classic;html=1;" edge="1" parent="1">
          <mxGeometry width="50" height="50" relative="1" as="geometry">
            <mxPoint x="749.9999999999998" y="409.9999999999999" as="sourcePoint" />
            <mxPoint x="929.9999999999998" y="409.9999999999999" as="targetPoint" />
          </mxGeometry>
        </mxCell>
        <mxCell id="jiRiJnq25yYsJu8a-V5x-32" value="" style="endArrow=classic;html=1;" edge="1" parent="1">
          <mxGeometry width="50" height="50" relative="1" as="geometry">
            <mxPoint x="759.9999999999998" y="419.9999999999999" as="sourcePoint" />
            <mxPoint x="939.9999999999998" y="419.9999999999999" as="targetPoint" />
          </mxGeometry>
        </mxCell>
        <mxCell id="jiRiJnq25yYsJu8a-V5x-33" value="" style="endArrow=classic;html=1;" edge="1" parent="1">
          <mxGeometry width="50" height="50" relative="1" as="geometry">
            <mxPoint x="769.9999999999998" y="429.9999999999999" as="sourcePoint" />
            <mxPoint x="949.9999999999998" y="429.9999999999999" as="targetPoint" />
          </mxGeometry>
        </mxCell>
        <mxCell id="jiRiJnq25yYsJu8a-V5x-34" value="" style="endArrow=classic;html=1;" edge="1" parent="1">
          <mxGeometry width="50" height="50" relative="1" as="geometry">
            <mxPoint x="779.9999999999998" y="439.9999999999999" as="sourcePoint" />
            <mxPoint x="959.9999999999998" y="439.9999999999999" as="targetPoint" />
          </mxGeometry>
        </mxCell>
        <mxCell id="jiRiJnq25yYsJu8a-V5x-35" value="" style="endArrow=classic;html=1;" edge="1" parent="1">
          <mxGeometry width="50" height="50" relative="1" as="geometry">
            <mxPoint x="789.9999999999998" y="449.9999999999999" as="sourcePoint" />
            <mxPoint x="969.9999999999998" y="449.9999999999999" as="targetPoint" />
          </mxGeometry>
        </mxCell>
        <mxCell id="jiRiJnq25yYsJu8a-V5x-36" value="" style="endArrow=classic;html=1;" edge="1" parent="1">
          <mxGeometry width="50" height="50" relative="1" as="geometry">
            <mxPoint x="799.9999999999998" y="459.9999999999999" as="sourcePoint" />
            <mxPoint x="979.9999999999998" y="459.9999999999999" as="targetPoint" />
          </mxGeometry>
        </mxCell>
        <mxCell id="jiRiJnq25yYsJu8a-V5x-37" value="" style="endArrow=classic;html=1;" edge="1" parent="1">
          <mxGeometry width="50" height="50" relative="1" as="geometry">
            <mxPoint x="809.9999999999998" y="469.9999999999999" as="sourcePoint" />
            <mxPoint x="989.9999999999998" y="469.9999999999999" as="targetPoint" />
          </mxGeometry>
        </mxCell>
        <mxCell id="jiRiJnq25yYsJu8a-V5x-38" value="" style="endArrow=classic;html=1;" edge="1" parent="1">
          <mxGeometry width="50" height="50" relative="1" as="geometry">
            <mxPoint x="819.9999999999998" y="479.9999999999999" as="sourcePoint" />
            <mxPoint x="999.9999999999998" y="479.9999999999999" as="targetPoint" />
          </mxGeometry>
        </mxCell>
        <mxCell id="jiRiJnq25yYsJu8a-V5x-39" value="" style="endArrow=classic;html=1;" edge="1" parent="1">
          <mxGeometry width="50" height="50" relative="1" as="geometry">
            <mxPoint x="829.9999999999998" y="489.9999999999999" as="sourcePoint" />
            <mxPoint x="1009.9999999999998" y="489.9999999999999" as="targetPoint" />
          </mxGeometry>
        </mxCell>
        <mxCell id="jiRiJnq25yYsJu8a-V5x-40" value="" style="endArrow=classic;html=1;" edge="1" parent="1">
          <mxGeometry width="50" height="50" relative="1" as="geometry">
            <mxPoint x="839.9999999999998" y="499.9999999999999" as="sourcePoint" />
            <mxPoint x="1019.9999999999998" y="499.9999999999999" as="targetPoint" />
          </mxGeometry>
        </mxCell>
      </root>
    </mxGraphModel>
  </diagram>
</mxfile>
